<mxfile host="65bd71144e">
    <diagram id="8Wz3FwkcaFIM8SSFOOUf" name="Page-1">
        <mxGraphModel dx="2103" dy="714" grid="1" gridSize="10" guides="1" tooltips="1" connect="1" arrows="1" fold="1" page="1" pageScale="1" pageWidth="850" pageHeight="1100" math="0" shadow="0">
            <root>
                <mxCell id="0"/>
                <mxCell id="1" parent="0"/>
                <mxCell id="10" value="ASD" style="swimlane;childLayout=stackLayout;resizeParent=1;resizeParentMax=0;startSize=20;html=1;" vertex="1" parent="1">
                    <mxGeometry x="20" y="30" width="1110" height="790" as="geometry"/>
                </mxCell>
                <mxCell id="11" value="Controller" style="swimlane;startSize=20;html=1;" vertex="1" parent="10">
                    <mxGeometry y="20" width="290" height="770" as="geometry"/>
                </mxCell>
                <mxCell id="43" value="&amp;nbsp; Vacature ophalen" style="rounded=0;whiteSpace=wrap;html=1;fillColor=#000000;align=center;" vertex="1" parent="11">
                    <mxGeometry x="60" y="330" width="120" height="60" as="geometry"/>
                </mxCell>
                <mxCell id="12" value="Service" style="swimlane;startSize=20;html=1;" vertex="1" parent="10">
                    <mxGeometry x="290" y="20" width="300" height="770" as="geometry"/>
                </mxCell>
                <mxCell id="38" value="" style="endArrow=none;html=1;" edge="1" parent="12">
                    <mxGeometry width="50" height="50" relative="1" as="geometry">
                        <mxPoint x="-290" y="300" as="sourcePoint"/>
                        <mxPoint x="820" y="300" as="targetPoint"/>
                        <Array as="points"/>
                    </mxGeometry>
                </mxCell>
                <mxCell id="39" value="" style="endArrow=none;html=1;" edge="1" parent="12">
                    <mxGeometry width="50" height="50" relative="1" as="geometry">
                        <mxPoint x="-290" y="450" as="sourcePoint"/>
                        <mxPoint x="820" y="450" as="targetPoint"/>
                        <Array as="points"/>
                    </mxGeometry>
                </mxCell>
                <mxCell id="40" value="" style="endArrow=none;html=1;" edge="1" parent="12">
                    <mxGeometry width="50" height="50" relative="1" as="geometry">
                        <mxPoint x="-290" y="600" as="sourcePoint"/>
                        <mxPoint x="820" y="600" as="targetPoint"/>
                        <Array as="points"/>
                    </mxGeometry>
                </mxCell>
                <mxCell id="13" value="Repository" style="swimlane;startSize=20;html=1;" vertex="1" parent="10">
                    <mxGeometry x="590" y="20" width="290" height="770" as="geometry"/>
                </mxCell>
                <mxCell id="14" value="Entity" style="swimlane;startSize=20;html=1;" vertex="1" parent="10">
                    <mxGeometry x="880" y="20" width="230" height="770" as="geometry"/>
                </mxCell>
                <mxCell id="24" value="Bedrijf" style="swimlane;" vertex="1" parent="14">
                    <mxGeometry x="42.5" y="40" width="145" height="100" as="geometry"/>
                </mxCell>
                <mxCell id="29" value="Sollicitaties" style="swimlane;" vertex="1" parent="14">
                    <mxGeometry x="42.5" y="180" width="145" height="100" as="geometry"/>
                </mxCell>
                <mxCell id="30" value="Vacatures" style="swimlane;" vertex="1" parent="14">
                    <mxGeometry x="42.5" y="320" width="145" height="100" as="geometry"/>
                </mxCell>
                <mxCell id="22" value="Gebruiker" style="swimlane;" vertex="1" parent="14">
                    <mxGeometry x="42.5" y="480" width="145" height="100" as="geometry"/>
                </mxCell>
                <mxCell id="23" value="Profiel" style="swimlane;" vertex="1" parent="14">
                    <mxGeometry x="42.5" y="630" width="145" height="100" as="geometry"/>
                </mxCell>
                <mxCell id="44" style="edgeStyle=none;html=1;entryX=0;entryY=0.5;entryDx=0;entryDy=0;" edge="1" parent="1" source="33" target="43">
                    <mxGeometry relative="1" as="geometry"/>
                </mxCell>
                <mxCell id="33" value="User" style="shape=umlActor;verticalLabelPosition=bottom;verticalAlign=top;html=1;outlineConnect=0;" vertex="1" parent="1">
                    <mxGeometry x="-110" y="350" width="30" height="60" as="geometry"/>
                </mxCell>
                <mxCell id="37" value="" style="endArrow=none;html=1;" edge="1" parent="1">
                    <mxGeometry width="50" height="50" relative="1" as="geometry">
                        <mxPoint x="20" y="210" as="sourcePoint"/>
                        <mxPoint x="1130" y="210" as="targetPoint"/>
                        <Array as="points"/>
                    </mxGeometry>
                </mxCell>
                <mxCell id="46" style="edgeStyle=none;html=1;entryX=0.5;entryY=1;entryDx=0;entryDy=0;" edge="1" parent="1" source="45" target="43">
                    <mxGeometry relative="1" as="geometry">
                        <Array as="points">
                            <mxPoint x="140" y="465"/>
                        </Array>
                    </mxGeometry>
                </mxCell>
                <mxCell id="45" value="HTML" style="shape=document;whiteSpace=wrap;html=1;boundedLbl=1;fillColor=#000000;" vertex="1" parent="1">
                    <mxGeometry x="-155" y="440" width="120" height="50" as="geometry"/>
                </mxCell>
            </root>
        </mxGraphModel>
    </diagram>
</mxfile>